<?xml version="1.0" encoding="UTF-8"?>
<svg id="Capa_1" data-name="Capa 1" xmlns="http://www.w3.org/2000/svg" viewBox="0 0 486.36 486.46">
  <defs>
    <style>
      .cls-1 {
        fill: #f8e48b;
      }

      .cls-1, .cls-2 {
        stroke-width: 0px;
      }

      .cls-2 {
        fill: #f6aa65;
      }
    </style>
  </defs>
  <path class="cls-1" d="M486.34,100.2c.02,97.92.01,195.85.02,293.77.01,16.3-3.62,31.66-11.68,45.87-10.14,17.89-24.66,30.97-43.57,39.15-7.22,3.12-14.72,5.24-22.48,6.42-4.33.66-8.72,1.02-13.1,1.02-101.59.03-203.18.06-304.77-.03-12.8-.01-25.15-2.65-36.92-7.94-12.08-5.43-22.5-13.08-31.2-22.98-10.54-11.98-17.51-25.82-20.75-41.51C.58,407.61,0,401.22,0,394.73.04,293.53.05,192.32,0,91.12c-.01-15.42,3.49-29.92,10.86-43.41C21.44,28.34,37.04,14.5,57.56,6.29c7.51-3.01,15.3-4.88,23.36-5.79,3.91-.44,7.81-.45,11.72-.45,50.12-.02,100.23-.01,150.35-.01S343.7.08,394.05,0c10.56-.02,20.83,1.41,30.8,4.85,12.25,4.22,23.09,10.77,32.56,19.64,13.9,13.01,22.75,28.85,26.88,47.37.9,4.03,1.37,8.15,1.74,12.29.46,5.36.31,10.7.31,16.05Z"/>
  <g>
    <path class="cls-2" d="M408.45,343.05c-2.57-1.76-5.44-3.24-8.64-3.21-3.93.04-6.28-1.56-7.96-5.18-4.03-8.72-9.69-16.29-17.32-22.27-4.82-3.79-10.17-6.67-16-8.44-7.5-2.29-15.17-3.24-23.07-2.64-6.42.49-12.62,1.59-18.59,3.98-5.37,2.16-10.26,5.13-14.58,8.98-6.4,5.71-11.41,12.46-15.02,20.25-.51,1.08-1.16,2.09-1.78,3.11-.53.86-1.35,1.41-2.31,1.61-2.11.44-4.28.82-6.41.43-1.67-.31-3.33-.32-5-.32h-88.95c-29.97-.01-59.94-.03-89.92.01-2.61.01-5.27.16-7.85.59-12.03,2.01-17.18,15.17-14.67,23.58,1.93,6.48,5.97,11.21,12.61,13.32,2.83.9,5.74,1.28,8.71,1.28h97.58c30.29,0,60.58.03,90.87-.07,3.38-.01,5.4,1.46,6.82,4.24.15.28.29.57.43.86,3.4,7.13,7.88,13.47,13.67,18.89,5.07,4.77,10.82,8.4,17.36,10.74,5.35,1.92,10.87,2.85,16.54,3.41,4.27.42,8.46.13,12.62-.29,7.43-.76,14.47-3.08,21-6.81,5.4-3.08,10.06-7.09,14.05-11.8,3.98-4.7,7.25-9.93,9.79-15.56,1.29-2.86,3.48-4,6.44-4.04,4.63-.06,8.58-1.89,11.82-5.03,8.82-8.56,7.56-22.89-2.24-29.62ZM339.72,377.71c-9.99.64-19.02-7.7-19.17-18.89-.14-11.18,9.27-19.23,18.98-19.18,10.71.05,19.06,9.29,19.17,18.89.12,10.43-9.09,19.76-18.98,19.18Z"/>
    <path class="cls-2" d="M416.16,239.32c-1.63-9.1-9.54-14.85-17.91-15.1-11.97-.36-23.95-.26-35.92-.34-24.12-.17-48.25-.33-72.38.19-21.01.44-42.04.1-63.06.1-.4,0-.8.02-1.2-.01-3.09-.19-5.55-1.36-6.79-4.4-.15-.37-.35-.72-.53-1.08-3.56-7.22-8.11-13.67-14.11-19.12-5.1-4.62-10.86-8.08-17.31-10.41-5.35-1.93-10.89-2.83-16.54-3.47-4.27-.48-8.47-.28-12.61.29-7.48,1.01-14.55,3.43-21.07,7.37-5.95,3.59-10.98,8.17-15.39,13.51-3.5,4.23-6.02,9.02-8.33,13.94-1.12,2.4-2.95,3.4-5.52,3.39-2.24-.01-4.42-.54-6.67-.47-3.99.13-7.97.06-11.95.39-2.41.21-4.7.53-6.98,1.39-8.94,3.41-13.78,13.27-11.53,22.16.98,3.89,2.86,7.32,5.92,9.91,4.11,3.47,9.02,4.96,14.38,4.98,2.88,0,5.76.06,8.63,0,2.63-.06,5.25.08,7.89-.25,1.9-.24,3.81.49,5.02,2.23.68.98,1.29,2.02,1.82,3.09,1.81,3.65,3.82,7.17,6.22,10.48,4.97,6.81,10.99,12.4,18.5,16.3,10.18,5.28,20.98,7.13,32.38,6.16,4.56-.38,8.98-1.11,13.36-2.39,7.74-2.26,14.49-6.23,20.34-11.69,5.9-5.52,10.39-12.1,13.77-19.41,1.48-3.19,3.59-5.01,7.26-4.55.39.05.8,0,1.2,0h83.44s82.49.01,82.49.01c2.39,0,4.77-.02,7.16-.4,4.07-.65,7.69-2.2,10.59-5.09,4.92-4.9,6.67-10.83,5.43-17.72ZM166.28,262.34c-11.19,0-19.03-7.6-19.1-19.05-.06-11.29,8.11-19.3,19.18-19.12,9.55-.5,19.26,8.26,19.04,19.23-.19,10.12-7.8,18.95-19.12,18.94Z"/>
    <path class="cls-2" d="M416.18,124.07c-.9-4.8-3.16-8.83-7.16-11.75-3.23-2.37-6.81-3.75-10.88-3.75-19.1,0-38.2-.01-57.3.02-2.86.01-4.88-1.01-6.05-3.73-.97-2.27-2.25-4.4-3.45-6.56-3.47-6.22-8.06-11.54-13.46-16.08-8.55-7.19-18.64-11.01-29.7-11.89-6.25-.49-12.57-.39-18.83.83-10.63,2.08-19.86,6.83-27.51,14.45-3.61,3.6-6.73,7.66-9.31,12.1-1.29,2.22-2.53,4.45-3.57,6.78-1.29,2.92-3.44,4.27-6.6,4.09-.56-.03-1.12,0-1.68,0h-65.44c-22.22,0-44.44-.03-66.65.03-6.43.02-11.6,2.9-15.29,8.04-3.7,5.17-4.48,11.02-2.5,17.08,1.11,3.37,2.96,6.31,5.86,8.56,4.21,3.28,9.02,4.65,14.26,4.66,39.87.02,79.75,0,119.63,0,4.15,0,8.31.04,12.46-.02,2.83-.04,4.79,1.28,5.86,3.74,1.22,2.8,2.8,5.38,4.36,7.97,3.73,6.22,8.45,11.62,14.27,15.95,9.59,7.14,20.55,10.3,32.39,10.71,2.54.09,5.08-.15,7.63-.35,4.72-.36,9.32-1.2,13.78-2.7,11.51-3.88,20.55-11.04,27.34-21.08,2.33-3.45,4.33-7.08,6.15-10.82,1.09-2.25,2.8-3.62,5.5-3.43,1.43.1,2.87.04,4.31.02,17.81-.21,35.62.58,53.42-.46,4.82-.29,9.26-1.99,12.86-5.2,5.14-4.6,6.55-10.57,5.3-17.21ZM281.49,146.79c-11.08-.16-18.66-7.73-18.73-19.18-.08-10.97,7.93-19.04,18.8-19.02,10.72-.28,19.61,8.61,19.39,19.11-.22,10.97-8.29,19.24-19.46,19.09Z"/>
  </g>
</svg>