<?xml version="1.0" encoding="UTF-8"?>
<svg id="Capa_1" data-name="Capa 1" xmlns="http://www.w3.org/2000/svg" viewBox="0 0 486.42 486.62">
  <defs>
    <style>
      .cls-1 {
        fill: #cfb146;
      }

      .cls-1, .cls-2 {
        stroke-width: 0px;
      }

      .cls-2 {
        fill: #fff;
      }
    </style>
  </defs>
  <path class="cls-1" d="M486.42,395.58c.03,42.84-30.24,79.87-71.39,88.81-6.66,1.44-13.4,2.19-20.2,2.19-101.02.03-202.05.08-303.07-.02-25.66-.03-47.76-9.18-65.81-27.52-13.2-13.41-21.35-29.53-24.58-48.1-.96-5.52-1.37-11.09-1.37-16.69V92.34c0-21.88,6.54-41.53,20.39-58.53C34.33,16.7,52.22,6.01,73.91,1.72,80.05.51,86.26.03,92.49.03,142.76,0,193.03.01,243.31.01s100.7-.03,151.06.01c21.32.02,40.6,6.29,57.35,19.6,17.78,14.11,28.84,32.41,33.16,54.74,1.07,5.51,1.51,11.07,1.51,16.67,0,101.52-.06,203.03.03,304.55Z"/>
  <g>
    <path class="cls-2" d="M243.76,188.52c44.12,0,88.23,0,132.35,0,.8,0,1.6-.04,2.4.02,4.58.33,7.44,3.71,6.95,8.26-.31,2.86-.71,5.7-1.07,8.55-.9,7.13-1.78,14.26-2.69,21.38-.88,6.97-1.79,13.93-2.68,20.9-.86,6.73-1.71,13.46-2.57,20.19-1.07,8.39-2.16,16.78-3.23,25.17-.86,6.73-1.69,13.46-2.55,20.19-1.07,8.39-2.17,16.78-3.23,25.17-1.03,8.16-2.03,16.32-3.06,24.47-1.6,12.59-3.17,25.18-4.86,37.76-.49,3.64-1.55,7.17-3.06,10.55-4.15,9.3-11.3,14.84-21.15,17.05-3.29.74-6.62,1.01-9.99,1.01-54.51-.01-109.01-.01-163.52,0-4.26,0-8.46-.43-12.53-1.7-9.14-2.86-15.34-8.88-18.87-17.73-1.64-4.12-2.31-8.45-2.87-12.82-1.06-8.31-2.16-16.62-3.22-24.93-1.03-8.08-2.03-16.16-3.06-24.23-1.04-8.15-2.12-16.3-3.17-24.46-.87-6.73-1.7-13.46-2.57-20.19-1.05-8.15-2.11-16.31-3.16-24.46-.87-6.81-1.73-13.62-2.59-20.43-.87-6.81-1.73-13.62-2.61-20.43-.88-6.89-1.78-13.77-2.66-20.66-.71-5.54-1.37-11.09-2.13-16.63-.21-1.51-.35-3.02-.38-4.53-.1-4.21,2.55-7.14,6.76-7.48.79-.06,1.6-.02,2.4-.02,44.2,0,88.39,0,132.59,0ZM253.97,295.51c0-12.39,0-24.77,0-37.16s.04-24.29-.02-36.44c-.02-3.67-.16-7.35-2.03-10.71-1.92-3.44-5-4.86-8.75-4.84-3.75.02-6.84,1.47-8.69,4.95-1.34,2.53-1.85,5.26-1.89,8.09-.05,4.08-.04,8.15-.04,12.23,0,39,0,78,0,117,0,6.63.02,13.27.03,19.9,0,2.76.52,5.4,1.82,7.85,3.59,6.75,13.08,7.14,17.23.71,1.28-1.99,1.98-4.18,2.07-6.54.11-2.63.24-5.27.24-7.9.02-22.38.01-44.75.01-67.13ZM198.89,368.91c-.38-6.05-1.28-11.81-1.97-17.6-1.31-10.86-2.76-21.7-4.11-32.55-1.36-10.85-2.64-21.71-4-32.56-1.51-12.04-3.09-24.07-4.6-36.11-1.35-10.77-2.65-21.55-4-32.32-.25-1.99-.78-3.91-1.8-5.67-2.21-3.81-6.24-5.78-10.23-5.2-6.43.94-9.63,6.43-9.2,12.31.36,4.93,1.18,9.83,1.81,14.74,1.22,9.5,2.46,19,3.65,28.5.89,7.13,1.71,14.27,2.58,21.4,1.04,8.48,2.13,16.95,3.17,25.43,1.03,8.4,2.01,16.8,3.04,25.2,1.38,11.25,2.79,22.5,4.2,33.74.37,2.95.99,5.83,2.7,8.35,2.41,3.56,5.78,4.82,9.96,4.21,4.04-.59,6.67-2.83,7.97-6.67.59-1.76.71-3.59.85-5.2ZM287.7,368.61c-.14,1.7.13,3.36.58,4.98,1.11,4,3.69,6.47,7.83,7.12,4.44.7,8.05-.63,10.46-4.6,1.22-2.01,1.99-4.18,2.27-6.51.68-5.54,1.32-11.1,2.02-16.64,1.04-8.31,2.13-16.62,3.17-24.94,1.04-8.31,2.02-16.64,3.06-24.95,1.2-9.58,2.45-19.15,3.66-28.74,1.04-8.31,2.02-16.64,3.06-24.95,1.17-9.34,2.42-18.68,3.58-28.02.33-2.64.11-5.26-.8-7.8-1.48-4.14-4.58-6.24-8.8-6.71-3.88-.44-6.79,1.31-8.93,4.45-1.33,1.95-2.1,4.13-2.44,6.44-.42,2.92-.76,5.86-1.12,8.79-.9,7.21-1.81,14.41-2.7,21.62-.88,7.05-1.73,14.1-2.61,21.15-.88,7.05-1.78,14.09-2.66,21.14-.87,6.97-1.71,13.94-2.58,20.91-1.04,8.31-2.11,16.63-3.16,24.94-.9,7.13-1.85,14.25-2.68,21.38-.43,3.64-1.09,7.27-1.18,10.94Z"/>
    <path class="cls-2" d="M243.35,90.97c46.52,0,93.03,0,139.55,0,2.79,0,5.59-.09,8.36.5,4.82,1.02,7.37,3.64,8.18,8.48.41,2.46.49,4.92.49,7.4-.01,19.66-.03,39.33-.02,58.99,0,1.77-.2,3.51-.5,5.24-.89,5.12-4.09,8.05-9.46,8.62-1.98.21-3.98.33-5.98.33-93.83.02-187.67.01-281.5.01-2.72,0-5.43-.13-8.08-.78-3.89-.94-6.18-3.44-7.12-7.28-.52-2.11-.6-4.27-.61-6.42-.06-14.23-.15-28.45-.17-42.68,0-6.79.15-13.58.22-20.37.02-1.94.38-3.81,1.02-5.63.93-2.67,2.74-4.46,5.41-5.37,1.9-.65,3.86-.99,5.88-1,2.72-.02,5.43-.04,8.15-.04,45.4,0,90.8,0,136.2,0Z"/>
    <path class="cls-2" d="M311.24,72.23c0,1.36.03,2.72,0,4.07-.09,3.65-2.46,6.58-6.04,6.9-2.92.26-5.86.57-8.84.3-3-.27-5.59-1.29-7.69-3.43-.87-.88-1.8-1.16-2.99-1.15-25.8.08-51.6.19-77.4.15-6.79-.01-13.31,1.29-19.8,3.01-1.54.41-3.09.77-4.66,1.09-4.24.85-7.85-1.71-8.46-5.97-.43-3.02-.48-6.04.05-9.06.99-5.59,6.23-10.18,11.87-10.3,29.95-.67,59.9-.32,89.85-.38,7.27-.01,14.54.03,21.81.04,1.2,0,2.38.07,3.57.27,5.99.96,8.24,5.23,8.63,9.68.14,1.59.02,3.19.02,4.79.02,0,.04,0,.06,0Z"/>
  </g>
</svg>