<?xml version="1.0" encoding="UTF-8"?>
<svg id="Capa_1" data-name="Capa 1" xmlns="http://www.w3.org/2000/svg" viewBox="0 0 486.37 486.46">
  <defs>
    <style>
      .cls-1 {
        fill: #f8e48b;
      }

      .cls-1, .cls-2 {
        stroke-width: 0px;
      }

      .cls-2 {
        fill: #f6aa65;
      }
    </style>
  </defs>
  <path class="cls-1" d="M486.37,94.06c-.01,100.17-.01,200.34-.01,300.51,0,15.19-3.34,29.59-10.4,43.08-5.59,10.67-13.05,19.85-22.28,27.6-11.28,9.48-24.13,15.79-38.47,19.04-6.62,1.5-13.35,2.16-20.17,2.16-48.76-.04-97.52-.02-146.28-.02-52.19,0-104.39-.04-156.59.03-10.15.02-20.04-1.34-29.66-4.49-10.19-3.33-19.49-8.37-27.92-15.01-8.69-6.84-15.86-15.02-21.6-24.48-5.65-9.31-9.46-19.33-11.47-30.03C.47,406.87,0,401.25,0,395.56c.04-50.76.02-101.53.02-152.29S.06,141.74,0,90.98c-.01-13.23,2.72-25.8,8.2-37.82,4.18-9.17,9.8-17.34,16.71-24.68,10.51-11.17,23.1-19.06,37.59-23.91,6.83-2.28,13.85-3.63,21.05-4.21,3.75-.3,7.49-.34,11.24-.34,99.76-.02,199.51-.01,299.27-.02,12.26,0,24.11,2.09,35.5,6.71,9.1,3.69,17.35,8.78,24.83,15.15,9.76,8.31,17.41,18.24,22.97,29.75,4.18,8.68,6.94,17.81,8.13,27.41.62,5,.88,10.01.88,15.04Z"/>
  <g>
    <path class="cls-2" d="M218.79,370.38c-3.25.29-5.86-1.05-8.11-3.3-30.91-30.92-61.83-61.83-92.74-92.76-4.72-4.72-4.7-11.39.11-16.2,53.87-53.86,107.73-107.73,161.59-161.6.28-.28.58-.55.85-.85.62-.69,1.2-.65,1.82.02.43.47.9.91,1.35,1.36,29.79,29.79,59.53,59.61,89.39,89.33,4.92,4.9,9.97,9.68,14.89,14.59.4.4.79.79,1.18,1.19.8.83.86,1.68.06,2.53-.44.47-.89.91-1.35,1.37-53.52,53.53-107.05,107.05-160.57,160.59-2.36,2.36-4.96,4.02-8.47,3.74Z"/>
    <path class="cls-2" d="M106.8,284.52c5.44.11,9.93,2.08,13.65,5.78,8.61,8.57,17.18,17.17,25.77,25.76,16.5,16.5,32.97,33.02,49.51,49.47,3.53,3.52,5.86,7.59,6.34,12.52.29,3.02-.39,6.03-1.64,8.83-2.26,5.06-5.91,8.6-11.28,10.33-13.35,4.3-26.68,8.65-40.02,12.97-9.32,3.02-18.65,6.02-27.98,9.03-5.23,1.69-10.49,3.3-15.69,5.08-2.13.73-3.63.4-5.27-1.26-12.08-12.22-24.25-24.33-36.4-36.48-.23-.23-.45-.46-.68-.68-1.15-1.08-1.49-2.22-.94-3.85,2.24-6.56,4.34-13.17,6.46-19.77,4.47-13.88,8.94-27.77,13.4-41.65,2.51-7.81,4.94-15.66,7.53-23.44,2.27-6.81,7.19-10.7,14.12-12.16,1.08-.23,2.15-.66,3.14-.47Z"/>
    <path class="cls-2" d="M434.36,131.2c.16,10.25-1.31,19.49-4.27,28.49-.69,2.12-1.61,4.16-2.41,6.24-1.65,4.28-6.47,4.66-9.48,1.21-1.26-1.45-2.58-2.83-3.93-4.19-31.24-31.25-62.49-62.5-93.74-93.75-.57-.56-1.16-1.1-1.68-1.71-2.47-2.92-1.94-6.21,1.48-7.97,2.19-1.13,4.51-2.02,6.84-2.85,5.49-1.95,11.16-3.12,16.93-3.96,2.85-.42,5.71-.28,8.56-.73,3.06-.49,6.2.22,9.29.47,6.03.5,11.96,1.8,17.69,3.79,10.13,3.52,19.25,8.73,27.35,15.84,6.37,5.59,11.64,12.04,16.03,19.2,4.87,7.94,8.14,16.58,9.91,25.75.48,2.49.88,5.01,1.27,7.52.38,2.46.09,4.95.18,6.65Z"/>
    <path class="cls-2" d="M410.87,178.42c.11,3.07-1.25,5.58-3.22,7.75-1.99,2.18-4.14,4.22-6.26,6.29-1.24,1.21-1.43,1.17-2.74-.05-.29-.27-.57-.56-.85-.85-34.81-34.82-69.63-69.63-104.44-104.46-2.38-2.38-2.4-1.88.05-4.36,1.74-1.76,3.54-3.47,5.24-5.27,4.34-4.57,11.36-4.48,15.78-.05,31.04,31.13,62.14,62.2,93.23,93.28,2.15,2.15,3.3,4.65,3.2,7.71Z"/>
    <path class="cls-2" d="M52.13,423.53c0-.88.08-1.77-.01-2.64-.55-5.45.78-10.6,2.52-15.68.9-2.64,1.76-5.3,2.69-7.93.41-1.17.77-1.27,1.68-.54.43.35.81.77,1.2,1.17,9.55,9.55,19.1,19.09,28.64,28.64,2.17,2.17,2.15,2.28-.77,3.22-4.02,1.3-8.04,2.59-12.07,3.85-2.13.66-4.31,1.05-6.58,1.02-4.95-.06-9.91,0-14.86-.02-2.29,0-2.42-.14-2.43-2.47-.02-2.88,0-5.75,0-8.63Z"/>
  </g>
</svg>