<?xml version="1.0" encoding="UTF-8"?>
<svg id="Capa_1" data-name="Capa 1" xmlns="http://www.w3.org/2000/svg" viewBox="0 0 486.4 486.46">
  <defs>
    <style>
      .cls-1 {
        fill: #cfb146;
      }

      .cls-1, .cls-2 {
        stroke-width: 0px;
      }

      .cls-2 {
        fill: #fff;
      }
    </style>
  </defs>
  <path class="cls-1" d="M486.33,395.94c-.06,39.73-25.62,73-60.73,85.38-9.96,3.51-20.22,5.14-30.78,5.14-75.77-.04-151.54-.02-227.31-.02-25.34,0-50.67-.02-76.01,0-21.66.03-41.01-6.64-57.8-20.28-17.27-14.03-27.99-32.11-32.2-54C.44,406.65.01,401.09.01,395.48c.03-50.75.02-101.51.02-152.27S.12,141.54,0,90.7C-.09,50.22,27.76,12.8,69.52,2.57,76.68.82,83.98.02,91.36.02,192.54.02,293.73-.04,394.91.06c26.53.02,49.05,9.86,67.2,29.22,12.34,13.16,19.93,28.79,22.94,46.62.83,4.89,1.31,9.81,1.32,14.78,0,101.75.09,203.5-.04,305.26Z"/>
  <path class="cls-2" d="M279.61,333.54h2.8c15.67,0,31.33,0,47,0,1.52,0,3.02.06,4.53.33,2.9.52,4.99,2.1,6.33,4.64.89,1.69,1.63,3.47,2.34,5.25,8.61,21.5,17.2,43,25.8,64.5.68,1.71,1.22,3.44,1.39,5.3.59,6.42-3.56,9.45-8.48,10.12-1.18.16-2.39.13-3.59.14-76.41,0-152.81,0-229.22,0-1.6,0-3.2.04-4.77-.35-5.69-1.41-8.35-5.62-7.08-11.35.33-1.47.83-2.92,1.39-4.33,8.73-21.88,17.49-43.74,26.25-65.61.36-.89.75-1.76,1.13-2.64,1.74-3.93,4.87-5.76,9.06-5.96.96-.05,1.92-.04,2.88-.04,15.59,0,31.17,0,46.76,0,2.92,0,2.94,0,2.94-2.88,0-15.27-.04-30.53,0-45.8,0-2.31-.96-3.79-3-4.68-.8-.35-1.59-.75-2.41-1.07-23.74-9.44-41.15-25.85-53.11-48.25-.23-.42-.49-.83-.66-1.28-1.28-3.31-3.56-4.47-7.21-4.6-41.13-1.49-69.87-29.97-76.61-63.89-1-5.04-1.57-10.06-1.52-15.2.11-12.71.07-25.42,0-38.13-.01-2.51.32-4.88,1.19-7.24,1.6-4.32,3.66-8.33,6.89-11.67,4.16-4.31,9.29-6.64,15.13-7.61,5.16-.86,10.37-.42,15.55-.46,10.15-.09,20.3,0,30.45,0,.56,0,1.12-.03,1.68,0,.95.05,1.25-.44,1.24-1.31-.01-1.92.04-3.84,0-5.75-.03-1.53.17-3.03.51-4.51.95-4.11,4.03-6.57,8.19-6.57,66.26,0,132.51,0,198.77,0,5.65,0,9,3.15,9.31,8.87.13,2.39.04,4.79.12,7.19.07,2.06.11,2.08,2.23,2.09,14.07,0,28.13-.12,42.2.05,9.72.11,17.62,4.08,23.15,12.26,3.18,4.71,4.58,10.02,4.62,15.64.09,12.47.21,24.94,0,37.41-.48,28.14-12.91,49.94-35.86,65.83-9.26,6.41-19.78,9.91-30.85,11.78-4.26.72-8.54,1.22-12.85,1.33-2.46.07-4.02,1.01-5.07,3.23-3.13,6.59-6.98,12.75-11.45,18.51-11.54,14.9-26.26,25.52-43.66,32.55-4.69,1.9-4.87,2.13-4.87,7.22,0,13.51,0,27.02,0,40.52,0,2.07-.02,4.15.46,6.44ZM134.56,153.13c0-11.27,0-22.53,0-33.8,0-2.12-.02-2.17-1.81-2.17-10.63-.02-21.25-.01-31.88,0-1.7,0-1.72.05-1.75,1.73-.09,4.71-.17,9.42-.24,14.13-.08,5.35.16,10.7.25,16.05.11,6.56,1.77,12.65,5.22,18.19,6.58,10.58,15.52,18.13,27.87,21.14,2.3.56,2.32.54,2.35-1.71,0-.4,0-.8,0-1.2,0-10.79,0-21.57,0-32.36ZM351.8,152.92c0,1.92,0,3.83,0,5.75,0,9.42,0,18.85,0,28.27,0,1.88.08,1.92,1.9,1.51,4.24-.94,8.24-2.53,11.97-4.73,9.13-5.37,15.85-12.8,19.18-23,1.44-4.43,1.74-9.07,2.1-13.68.54-6.86.41-13.72.43-20.59,0-2.56.01-5.11.08-7.66.03-1.11-.35-1.66-1.51-1.55-.4.04-.8,0-1.2,0-10.14,0-20.28,0-30.42,0-.4,0-.8.03-1.2,0-1.08-.1-1.4.46-1.34,1.43.04.56,0,1.12,0,1.68,0,10.86,0,21.72,0,32.58Z"/>
</svg>