<?xml version="1.0" encoding="UTF-8"?>
<svg id="Capa_1" data-name="Capa 1" xmlns="http://www.w3.org/2000/svg" viewBox="0 0 486.37 486.44">
  <defs>
    <style>
      .cls-1 {
        fill: #cfb146;
      }

      .cls-1, .cls-2 {
        stroke-width: 0px;
      }

      .cls-2 {
        fill: #fff;
      }
    </style>
  </defs>
  <path class="cls-1" d="M486.36,243.2c0,50.75,0,101.51.01,152.26,0,17.99-4.77,34.61-14.69,49.58-14.39,21.72-34.48,35.08-60.13,39.95-5.36,1.02-10.76,1.43-16.2,1.43-101.43-.01-202.85-.07-304.27.02-42.35.04-79.88-29.5-89.07-71.98-1.33-6.18-1.99-12.46-1.99-18.79C.02,294-.03,192.34.04,90.67.07,57.35,18.28,27.73,46.12,11.89,56.96,5.73,68.59,2.02,80.95.59c3.64-.43,7.32-.59,11-.59,100.86.02,201.72,0,302.59.03,24.87,0,46.45,8.54,64.32,25.83,14.59,14.12,23.38,31.37,26.51,51.47.73,4.68,1,9.37,1,14.09-.01,50.59-.01,101.19-.01,151.78Z"/>
  <g>
    <path class="cls-2" d="M245.32,395.78c-41.24,0-82.48,0-123.73,0-10.63,0-21.26-.01-31.89-.04-3.52,0-7.02-.31-10.43-1.26-6.89-1.92-10.41-7.77-8.85-14.73.7-3.14,1.95-6.07,3.4-8.93,14.56-28.89,29.11-57.78,43.68-86.66,13.31-26.39,26.64-52.76,39.97-79.14,1.78-3.52,3.9-6.8,7.02-9.3,4.1-3.29,8.51-3.73,13.19-1.32,3.71,1.91,6.51,4.88,9,8.13,9.79,12.74,19.52,25.51,29.28,38.27,18.27,23.86,36.54,47.7,54.81,71.56,1.07,1.4,2.26,2.69,3.53,3.92,7.59,7.33,17.81,8.18,26.49,2.17,3.84-2.66,6.94-6.13,10.18-9.44,5.2-5.3,10.32-10.7,15.83-15.7,2.89-2.63,6.17-4.53,10.01-5.37,5.69-1.24,10.75.26,15.36,3.59,2.36,1.7,4.28,3.84,5.95,6.2,6.72,9.53,13.44,19.07,20.14,28.62,11.19,15.97,22.36,31.94,33.54,47.92,1.51,2.16,2.9,4.37,3.87,6.87,2.17,5.58-1.29,13.09-8.53,14.2-1.82.28-3.64.44-5.49.44-52.11-.02-104.22-.01-156.34-.01v.04Z"/>
    <path class="cls-2" d="M257.57,140.95c-.25-27.62,23.02-50.28,50.06-50.29,26.43-.01,50.41,21.55,50.23,50.62-.17,27.88-22.96,49.82-50.31,49.75-27.97-.08-50.23-23.29-49.98-50.07Z"/>
  </g>
</svg>