<?xml version="1.0" encoding="UTF-8"?>
<svg id="Capa_1" data-name="Capa 1" xmlns="http://www.w3.org/2000/svg" viewBox="0 0 486.38 486.42">
  <defs>
    <style>
      .cls-1 {
        fill: #f8e48b;
      }

      .cls-1, .cls-2 {
        stroke-width: 0px;
      }

      .cls-2 {
        fill: #f6aa65;
      }
    </style>
  </defs>
  <path class="cls-1" d="M486.38,395.15c0,16.27-3.97,31.45-12.03,45.51-8.13,14.16-19.37,25.29-33.48,33.52-10.12,5.91-21.03,9.56-32.59,11.24-4.73.69-9.52,1-14.31,1-100.55,0-201.1,0-301.65-.01-16.27,0-31.63-3.74-45.84-11.75-13.92-7.86-25.03-18.67-33.32-32.34-5.74-9.45-9.56-19.64-11.59-30.5-.96-5.17-1.53-10.42-1.53-15.69-.02-101.99-.1-203.99.06-305.98.03-21.4,7.15-40.53,20.82-57.11,7.82-9.48,17.17-17.13,28.06-22.83,8.83-4.62,18.2-7.66,28.06-9.2C82.2.2,87.36.02,92.55.02h150.82C293.65.02,343.92.05,394.19,0c7.78-.01,15.46.63,23,2.53,14.02,3.52,26.54,9.93,37.53,19.37,10.29,8.84,18.19,19.45,23.79,31.77,3.41,7.52,5.64,15.41,6.89,23.58.7,4.6.96,9.2.96,13.83-.01,101.36-.03,202.72.02,304.07Z"/>
  <path class="cls-2" d="M430.77,245.45c-1.04,49.23-18.66,93.73-55.11,130.16-37.09,37.07-82.33,55.5-134.58,54.98-50.52-.51-94.34-18.9-130.16-54.68-37.65-37.6-55.45-83.62-55.31-136.71,2-50.38,19.97-93.98,56.08-129.44,37.86-37.18,83.77-55.2,136.7-53.88,50.13,1.26,93.3,20.16,128.43,55.91,35.73,36.34,53.23,80.59,53.96,133.65ZM209,153.88c.26,3.79.1,8.09.35,12.4.38,6.52.63,13.04,1.05,19.56.21,3.26.48,6.52.68,9.77.16,2.54.05,5.12.47,7.62.55,3.24.46,6.51.72,9.75.27,3.32.54,6.67.72,10.01.12,2.3.11,4.63.43,6.91.78,5.61.99,11.27,1.22,16.89.31,7.49.89,14.98.65,22.49-.07,2-.03,4,0,5.99.02,2.2.62,4.24,1.85,6.09,1.72,2.58,4.25,4.04,7.06,5.06,3.75,1.37,7.64,2.26,11.58,2.78,2.04.27,4.16.64,6.17.43,2.84-.29,5.72-.21,8.55-.8,4.84-1.01,9.71-1.96,14.03-4.52,3.35-1.99,5.45-4.77,5.45-8.92,0-3.82,0-7.64.31-11.47.42-5.08.2-10.19.48-15.3.25-4.53.56-9.07.73-13.61.1-2.61.22-5.25.44-7.87.42-5.07,1.06-10.13,1.27-15.21.14-3.43.48-6.84.69-10.25.15-2.46.13-4.95.43-7.39.67-5.45.63-10.96,1.29-16.41.37-3.07.19-6.2.44-9.31.38-4.68.12-9.4.52-14.1.24-2.86.03-5.75.07-8.63.07-5.56-2.38-9.78-6.81-12.98-6.65-4.8-14.4-6.33-22.28-7.03-5.46-.49-10.99-.22-16.43.86-5.6,1.12-10.98,2.7-15.67,6.13-4.11,3.01-6.58,6.85-6.46,12.13.07,2.8.01,5.59.01,8.9ZM244.28,360.81c5.78-.36,12.18-1.33,18.22-4.15,5.77-2.69,10.74-6.32,14.04-11.84,3.33-5.57,3.28-11.4.28-17.09-2.49-4.72-6.47-8.01-11.09-10.56-4.86-2.68-10.06-4.49-15.55-5.17-2.9-.36-5.87-1.04-8.8-.49-2.04.39-4.1.46-6.15.75-9.06,1.28-16.95,4.7-23.18,11.65-5.35,5.97-5.89,15.34-1.9,21.57,3.31,5.18,7.98,8.66,13.39,11.2,6.3,2.95,13.07,3.9,20.74,4.13Z"/>
</svg>