<?xml version="1.0" encoding="UTF-8"?>
<svg id="Capa_1" data-name="Capa 1" xmlns="http://www.w3.org/2000/svg" viewBox="0 0 486.39 486.5">
  <defs>
    <style>
      .cls-1 {
        fill: #fffffe;
      }

      .cls-1, .cls-2, .cls-3 {
        stroke-width: 0px;
      }

      .cls-2 {
        fill: #cfb146;
      }

      .cls-3 {
        fill: #fff;
      }
    </style>
  </defs>
  <path class="cls-2" d="M486.39,395.53c.03,41.45-28.52,78.57-70.03,88.48-6.94,1.65-14,2.46-21.13,2.46-101.34.02-202.69.07-304.03-.02-41.77-.04-75.69-27.37-87.09-64.02C1.38,413.67.01,404.7.01,395.54,0,293.87,0,192.19,0,90.52,1.15,55.81,16.61,29.49,46.42,11.7,56.42,5.74,67.39,2.38,78.89.76,83.48.11,88.12.02,92.76.02h150.57C293.61.02,343.88.04,394.15,0c11.05-.01,21.86,1.42,32.17,5.42,31.44,12.19,50.88,34.85,58.34,67.72,1.3,5.77,1.71,11.68,1.71,17.61-.01,101.6-.07,203.19.02,304.78Z"/>
  <g>
    <path class="cls-1" d="M174.85,425.69c-17.98,0-35.96.03-53.94-.02-5.43-.02-10.86.03-16.29-.26-20.23-1.06-37.76-15.63-42.42-35.37-.68-2.88-1.05-5.79-1.04-8.77.05-10.63-.67-21.24-.42-31.87.36-15.37,2.43-30.44,8.62-44.64,15.31-35.11,41.5-57.6,78.77-66.8,11.29-2.79,22.87-3.62,34.5-2.9,20.73,1.28,39.61,8.01,56.76,19.67,3.11,2.11,6.12,4.35,9.05,6.7,2.06,1.66,3.97,3.46,5.41,5.72,6.43,10.11-.83,24.22-12.79,24.95-4.96.3-9.25-1.16-13.09-4.25-8.85-7.12-18.51-12.77-29.44-16.12-8.62-2.64-17.44-4-26.45-3.6-19.09.85-35.99,7.43-50.39,20.07-13.7,12.03-22.11,27.13-25.39,45.03-1.31,7.16-1.68,14.43-1.65,21.71.04,8.31.24,16.62.29,24.92.05,7.53,5.64,11.91,12.02,12.37,1.19.09,2.4.05,3.59.05,42.76,0,85.51,0,128.27,0,2.32,0,4.63.02,6.92.44,8.42,1.55,14.3,8.49,14,16.86-.29,8.11-6.68,15-14.91,15.81-5.66.56-11.34.26-17.01.28-17.66.08-35.32.03-52.98.03Z"/>
    <path class="cls-1" d="M174.8,221.66c-30.01-1.45-52.66-14.67-66.32-41.98-4.15-8.3-6.16-17.26-6.62-26.54-.19-3.91-.58-7.81-.65-11.72-.36-19.7,3.54-38.12,16.53-53.72,11.26-13.51,25.49-22.2,42.76-25.44,23.66-4.44,44.91,1.16,63.2,16.82,12.84,10.99,20.66,25.01,23.14,41.84,1.19,8.07,1.87,16.19,1.75,24.35-.2,13.43-2.58,26.4-9.25,38.25-11.05,19.65-27.74,31.73-49.72,36.55-1.79.39-3.61.65-5.42.92-3.09.46-6.2.58-9.4.67ZM214.16,139.24c0-3.12.06-6.23-.01-9.34-.12-5.26-1.35-10.28-3.64-15.01-8.15-16.86-28.28-26.02-46.38-20.68-14.65,4.32-24.09,13.91-27.39,29.1-1.08,5-1.26,10.13-2.07,15.17-.05.32-.1.69.18.89.97.72.62,1.74.63,2.65.04,2.32-.02,4.63.02,6.95.14,7.03,2.06,13.55,5.77,19.5,9.69,15.56,28.09,22.35,45.67,16.67,13.63-4.41,22.59-13.46,26.02-27.55,1.47-6.02,1.32-12.2,1.2-18.35Z"/>
    <path class="cls-3" d="M351.72,363c-18.85,0-37.71-.02-56.56.01-3.43,0-6.67-.62-9.65-2.35-5.78-3.34-8.96-9.98-7.93-16.47,1.11-7.02,6.15-12.43,12.87-13.82,1.56-.32,3.14-.49,4.75-.49,34.59,0,69.18-.01,103.78-.02,3.44,0,6.87-.04,10.31.05,9.28.23,16.44,7.6,16.42,16.84-.02,8.35-6.9,15.64-15.27,16.16-1.43.09-2.87.07-4.31.07-18.14,0-36.27,0-54.41,0Z"/>
    <path class="cls-3" d="M351.46,300.65c-18.86,0-37.72.04-56.58-.02-7.73-.03-14.2-5.02-16.14-12.27-2.12-7.93,2.27-18.24,12.39-20.32,1.48-.3,2.98-.5,4.51-.5,37.08.02,74.17.02,111.25,0,3.84,0,7.5.63,10.7,2.85,5.96,4.13,8.16,10.02,6.92,16.94-1.21,6.75-5.65,10.89-12.21,12.78-2.1.6-4.26.57-6.42.57-14.23,0-28.45,0-42.68,0-3.92,0-7.83,0-11.75,0v-.04Z"/>
    <path class="cls-1" d="M319.89,392.26c7.99,0,15.98,0,23.97,0,3.06,0,6.05.4,8.87,1.67,6.73,3.02,10.58,10.08,9.53,17.43-1.01,7.08-7.07,13.04-14.2,13.96-1.58.21-3.17.32-4.77.31-15.82-.02-31.64,0-47.46-.02-3.55,0-6.98-.58-10.13-2.38-5.92-3.38-9.19-10.15-8.09-16.86,1.17-7.05,6.42-12.43,13.3-13.68,2.46-.45,4.93-.44,7.4-.44,7.19-.01,14.38,0,21.57,0Z"/>
  </g>
</svg>